<?xml version="1.0" encoding="UTF-8"?>
<!DOCTYPE svg PUBLIC "-//W3C//DTD SVG 1.1//EN" "http://www.w3.org/Graphics/SVG/1.1/DTD/svg11.dtd">
<!-- Creator: CorelDRAW (OEM Version) -->
<svg xmlns="http://www.w3.org/2000/svg" xml:space="preserve" width="3.33333in" height="3.33333in" version="1.1" style="shape-rendering:geometricPrecision; text-rendering:geometricPrecision; image-rendering:optimizeQuality; fill-rule:evenodd; clip-rule:evenodd"
viewBox="0 0 3333.33 3333.33"
 xmlns:xlink="http://www.w3.org/1999/xlink"
 xmlns:xodm="http://www.corel.com/coreldraw/odm/2003">
 <defs>
  <style type="text/css">
   <![CDATA[
    .fil0 {fill:#292929}
    .fil1 {fill:#2C2C2D}
    .fil2 {fill:#2E3030}
    .fil4 {fill:#323334}
    .fil3 {fill:#F7F7F8}
   ]]>
  </style>
 </defs>
 <g id="Layer_x0020_1">
  <metadata id="CorelCorpID_0Corel-Layer"/>
  <path class="fil0" d="M2628.48 3005.72c13.06,21.3 13.37,31.35 22.65,55.29 17.69,45.59 67.75,131.52 70.93,172.63l-109.26 0.78 15.68 -228.7zm-415.42 228.41l-34.42 0.41 -23.88 -89.88c10.27,12.12 16.92,26.44 28.18,45.35 10.33,17.35 23.41,30.35 30.12,44.13l0 -0.01zm-40.73 -126.45c14.18,22.81 70.46,107.7 74.65,125.28 -27.76,-7.17 -36.47,-27.16 -50.69,-51.52 -31.01,-53.1 -84.87,-130.12 -99.83,-201.83 20.06,44.65 50.25,86.86 75.86,128.08l0.01 -0.01zm718.34 126.93c-31.54,0.55 -41.32,7.87 -46.85,-18.02l-41.54 -341.73c21.54,29.62 147.51,317.72 152.25,359.49 -21.28,0.17 -42.58,-0.1 -63.86,0.26zm-1561.15 -516.37c54.65,3.67 120.07,20.06 141.03,56.97 50.46,11.17 134.78,154.58 265.5,-3.96 33.34,-40.43 50.85,-21.36 85.13,-48.17 -6.54,-5.35 -8.79,-9.24 -29.9,-0.74 -13.35,5.38 -8.46,6.67 -23.05,8.63 66.76,-108.99 20.17,-73.76 173.94,-144.15 22.33,36.11 36.62,115.72 53.7,167.03 32.61,97.96 156.7,407.19 167.27,480.42l-1433.93 0.02c-6.34,-166.39 130.98,-487.72 330.47,-510.89l269.83 -5.17 0.01 0.01zm200.66 20c22.13,-16.37 82.72,-31.94 111.87,-42.05 38.44,-13.32 71.26,-27.95 103.51,-45.5 -12.68,19.74 -26.83,24.39 -40.52,40.38 -39.96,46.69 -33.91,80.17 -174.85,47.17l-0.01 0zm671.26 91.98c7.38,6.36 1.96,-0.13 10.47,11.69l95.63 143.5c7.45,38.78 13.93,206.74 12.54,249.12l-52.84 -0.54 -45.87 -80.78 -51.71 -77.01c-30.43,-50.03 -125.6,-213.45 -121.96,-258.79 -0.93,-1.03 -1.99,-2.49 -2.52,-3.31 -0.53,-0.82 -1.77,-2.32 -2.39,-3.35 -0.61,-1.01 -1.52,-2.3 -2.13,-3.44l-34.73 -113.63 -27.82 -107.7c13.33,0.31 87.21,15.87 95.67,21.17 3.19,2 125.66,200.52 127.65,223.1l0.01 -0.02zm-471.09 -193.26c8.97,-16.89 15.01,-16.84 36.6,-40.66l11.72 -10.22c0.59,-1.95 2.52,-1.56 3.78,-2.35 -6.89,31.98 -18.22,48.11 -52.1,53.24l0 -0.01zm-1247.06 597.52c0.19,-43.65 71.27,-294.45 88.19,-350.56 22.55,-74.74 66,-291.54 100.95,-333.47 -5.51,81 -46.22,154.41 -47.59,285.56 -0.37,34.9 8.13,76.22 4.87,108.22 -5.59,54.63 -21.65,129.72 -32.39,186.47 -24.73,130.7 -12.61,103.65 -114.02,103.78l-0.01 0zm964.18 -500.49c49.58,5.22 94.49,56.52 151.39,51.56 56.93,-4.97 91.33,-52.19 117.35,-83.19 17.11,-20.38 36.56,-31.39 51.48,-51.57 41.14,-55.58 48.31,-131.78 102.14,-197.07 -5.93,59.09 -138.31,434.21 -291.24,369.26 -36.7,-15.59 -114.43,-67.39 -131.12,-88.98l-0 -0.01zm-211.64 -241.68c14.96,5.83 37.65,43.16 49.06,59.21 70.35,99.04 22.78,82.3 -39.51,121.44 -31.43,19.76 -36.72,32.58 -82.75,32.54 -79.64,-0.06 -128.27,5.41 -194.1,33.67 -5.72,3.61 -12.1,7.77 -18.38,11.73 -10.7,6.76 -8.87,6.37 -20.75,11.96 -6.28,10.24 -32.09,31.02 -43.22,42.15 -39.85,39.81 -79.65,98.76 -104.55,151.09 -43.43,91.26 -61.69,158.56 -68.22,277.85l-124.14 -1.23c1.91,-33.28 16.98,-86.76 24.44,-121.07 8.84,-40.67 16.56,-78.49 22.26,-120.05 17.46,-127.48 130.32,-572.93 192.74,-659.88l254.79 28.86c2.58,76.94 8.66,111.06 38.54,171.79 14.47,29.4 68.59,103.2 104.22,102.62 -4.28,-24.76 -38.78,-42.98 -56.41,-103.36 -10.91,-20.17 -30.14,-99.67 -33,-134.29 34.74,9.65 81.71,67.64 98.99,94.97l-0.01 0.01zm-135.88 -119.07c32.66,11.91 20.55,13.86 25.49,52.98 9.89,78.28 46,127.56 49.91,156.92 -26.54,-27.93 -37.21,-39.77 -51.84,-86.21 -11.46,-36.37 -18.67,-83.67 -23.56,-123.69l0 -0zm1203.39 571.78c-1.02,-0.88 -2.35,-2.07 -3.01,-2.72l-8.25 -8.28c-5.29,-6.04 -2.73,-3.24 -6.56,-8.56 -5.35,-7.44 -7.5,-11.29 -11.57,-17.47 -72.06,-109.4 -91.15,-154.33 -154.56,-262.91 -29.7,-50.87 -59.09,-93.07 -89.68,-150.46 -51.48,-96.57 -65.19,-108.44 -25.56,-157.52 57.46,-71.18 101.62,14.92 124.52,62.7 62.96,131.41 112.04,162.19 143.22,338.57 10.44,59.08 32.27,145.46 31.46,206.65l-0.01 -0zm-242.3 -1017.09c165.19,-0.45 55.19,260.83 -88.93,292.93l61.09 -212.45c61.67,16.93 -9.44,73.91 52.39,94.5 28.04,-9.85 40.94,-34.65 33.46,-75.72 -5.91,-32.54 -43.88,-33.54 -74.52,-34.37 1.2,-22.44 5.71,-46.57 16.51,-64.89l-0 0zm-1701.01 1303.13c-3.3,-14.59 114.6,-1365.21 169.19,-1462.55 3.45,5.48 0.86,-1.51 5.18,11.24l14.75 73.58c15.24,53.39 14.31,34.67 -1.07,83.82 -14.38,45.97 -24.35,116.67 -33.01,167.92 -19.59,116 -39.1,242.67 -46.09,362.94 -3.4,58.57 -17.98,119.12 -23.13,181.42 -17.09,206.45 11.7,395.77 8.78,584.23l-94.6 -2.6 0 0zm1237.89 -1463.89c28.24,19.91 39.08,2.94 37.78,42.8 -54.12,-8.3 -73.54,-27.89 -87.11,-79.2 20.72,10.81 30.27,22.96 49.33,36.4zm-111.48 -180.24c3.77,-16.68 5.97,-26.06 17.03,-35.86 1.15,-15.92 25.42,-68.17 37.15,-78.37 37.22,19.9 65.04,59.84 98.37,76.08 0.19,36.91 -4.34,71.76 -5.83,108.89 -1.5,37.54 3.59,73.88 2.47,108.89 -32.94,-7.02 -90.67,-52.41 -109.16,-70.26 -16.06,-15.51 -22.11,-32.19 -37.56,-50.72 -17.03,-20.43 -18.78,-37.39 -2.46,-58.65l-0.01 0zm-55.74 -40.13c17.16,12.9 17.38,8.72 13.64,34.74 -19.98,-6.07 -15.66,-9.87 -32.32,-21.14 -20.1,-13.6 -23.29,-2.73 -16.8,-29.05 18.24,-2.36 24.79,7.41 35.48,15.45l-0 0zm-7.49 -55.92c35.1,8.14 11.96,8.51 39.28,24.51l-6.98 27.13c-15.95,-8.95 -33.57,-19.02 -44.49,-32.13 5.01,-9.78 6.59,-10.71 12.19,-19.51zm171.14 -0.06c-12.49,-7.65 -18.81,-10.8 -29.29,-19.69 -13.85,-11.76 -16.33,-8.35 -17.06,-22.09 16,0.27 37.48,22.01 46.35,41.78zm-157 -19.71c7.2,-14.5 18.32,-30.31 30.12,-42.89l24.37 13.92 -24.86 61.39c-10.73,-11.33 -20.84,-12.36 -29.63,-32.41l0 -0.01zm60.81 -75.74c0.57,-22.66 25.46,-54.03 44.48,-64.77 -3.84,19.01 -9.06,26.63 -17.04,42.67 -11.09,22.28 -6.22,26.78 -27.44,22.1l0 0zm144.36 129.43c-22.37,-21.15 -42.98,-45.75 -65.3,-70.83 -29.68,-33.33 -5.06,-55.77 13.57,-90.2 25.83,-47.77 76.5,-144.28 102.04,-167.6 -2.69,47.22 -20.76,112.76 -29.5,162.3 -14.31,81.2 -11.98,98.92 -20.8,166.33l-0.01 0.01zm-721.98 -318.04c-4.84,-9.35 -8.85,-16.13 -13.87,-24.57 -13.19,-22.12 -16.87,-25.1 -3.25,-52.58 36.53,40.59 40.2,36.46 35.68,103.6l-18.56 -26.45 -0 0zm14.28 -87.37c27.05,23.65 6.89,33.46 6.83,33.56 -10.17,-10.17 -33.26,-35.26 -31.61,-52.21 9.29,7.2 16.29,11.22 24.79,18.66l-0.01 -0.01zm-155.19 2.44c-7.02,-13.87 -2.03,-42.52 4.91,-57.38 15.18,6.7 34.96,28.29 41.84,43.35 -13.68,10.78 -30.94,19.98 -46.75,14.04l0 -0.01zm162.02 -112.81c29.51,17.06 23.31,70.83 9.82,100.32 -14.35,-6.25 -22.21,-15.1 -35.02,-22.69l25.2 -77.63zm27.24 -1.46c-6.09,-2.26 -31.44,-18.89 -5.94,-43.91 7.65,15.88 12.34,19.25 5.94,43.91zm7.13 -51.38c-17.69,-13.07 -15.16,-8.77 -4.41,-35.03 29.62,-72.27 19.14,-40.59 47.78,-97.29 -5.54,22.56 -13.4,40.91 -21.34,64.97 -10.8,32.74 -9.72,53.28 -22.03,67.35l0 0zm61.26 -607.85c14.81,11.26 21.67,37.42 25.95,57.36 19.39,27.69 -33.32,88.45 -46.61,104.51 -17.51,21.15 -54.7,76.79 -74.96,88.51 -56.37,-31.75 -46.41,-270.91 49.09,-350.82 13.92,12.64 45.82,83.95 46.52,100.44l0.01 -0zm1234.93 -172.5c13.2,3.11 21.97,6.09 33.45,10.39 4.19,1.57 10.5,3.91 13.48,5.48 18.74,9.84 5.74,2.05 13.5,9.31 33.87,1.14 161.97,73.09 193.99,92.71 126.72,77.65 215.74,146.24 300.57,268.73 19.99,28.85 99.94,148.18 96.87,184.39 4.45,4.83 3.02,2.52 7.52,9.99 2.02,3.35 4.27,8.55 4.91,10.21 3.89,10.18 4.69,16.03 7.04,26.52 24.26,42.23 28.06,157.21 23.34,214.04 -6.05,72.85 -23.38,139.66 -34.71,208.82 -23.5,143.48 -46.29,282.19 -69.96,422.74 -43.54,258.69 -83.95,537.33 -130.22,792.31 -11.8,65.02 -4.36,45.01 1.7,50.44 12.03,-26.67 20.12,-122.83 27.8,-153.28 1.54,-6.08 2.03,-6.63 4,-11.86 0.36,-0.96 1.54,-1.71 1.81,-3.79 0.28,-2.09 1.17,-2.57 1.93,-3.76 2.31,56.79 1.08,111.69 0.63,168.37 -0.35,44.94 -3.17,116.91 2.17,158.9 4.99,39.21 21.33,287.72 14.72,309.88 8.1,11.79 9,25.61 11.23,41.63l18.75 132.73c8.31,29.22 15.32,77.56 12.64,112.89l-87.17 0.63c-31.59,-163.13 -117.94,-399.76 -97.13,-541.06 5.25,-35.61 11.45,-60.8 12.09,-97.86 0.92,-53.2 59.21,-419.06 68.82,-468.82 11.69,-60.57 25.24,-118.03 36.96,-180.38 14.79,-78.64 48.72,-157.18 50.03,-168.03 -25.48,9.35 -24.6,26.25 -31.93,55.39 -5.19,20.67 -13.78,42.1 -19.8,63.53 -12.15,43.36 -19.29,90.29 -29.35,134.62 -5.07,24.93 -11.72,84.29 -25,100.06 1.77,27.5 -14.04,101.35 -18.61,132.95 -33.37,230.8 -61.72,447.38 -76.25,684.31 -3.89,63.41 3.26,240.06 -20.73,284.94l-254.91 -0.71c-5.55,-62.44 -4.63,-129.06 -8.91,-191 -18.89,-273.53 -88.84,-565.27 -169.71,-823.22 -21.16,-67.47 -32.15,-88.47 -12.25,-162.37 36.05,-133.92 -23.72,-123.95 -37.08,-142.34 -17.3,-54.15 -8.97,-125.61 4.13,-181.71 5.7,-24.43 13.82,-51.35 22.47,-75.13 9.24,-25.38 24.91,-55.5 14.38,-73.9 -12.63,7.59 -11.98,7.85 -16.69,28.15 -20.1,86.76 -134.6,483.98 -148.12,497.72 -6.89,30.04 -24.13,106.15 -43.29,126.61 1.43,41.29 -11.08,33.76 -30.98,47.94 -7.96,30.96 -27.94,124.92 -52.71,148.64 -1.84,23.9 -34.28,73.49 -46.01,82.39 -5.39,11.49 -6.18,12.47 -14.49,22.97 -9.19,11.61 -5.02,9.23 -19.02,16.46 -5.22,15.67 -7.46,14.87 -20.06,27.67 -4.55,4.62 -7.83,8.64 -12.31,12.38 -10.98,9.19 -2.59,4.69 -13.94,8.23 -5.86,8.95 1.91,1.19 -10.04,11.91 -6.85,6.15 -6.45,4.85 -14.19,9.53 -20.51,37.74 -143.72,80.42 -202.59,87.72 -49.75,6.16 -228.96,-5.28 -275.32,-11.66 14.97,-0.92 100.37,-47.63 120.89,-59.43 133.65,-76.9 92.98,-37.91 218.75,-144.3 18.84,-15.94 78.26,-84.37 90.9,-89.13 5.53,-13.93 27.05,-42.83 40.7,-50.57 5.17,-20.28 52.64,-79.46 68.98,-106.43 24.78,-40.89 37.36,-67.45 58.61,-113.29 18.46,-39.85 101.36,-207.11 98.78,-241.66 -20.24,4.34 -25.61,25.04 -33.35,46.95 -18.29,51.82 -111.67,208.2 -143.14,259.47 -22.73,37.04 -39.44,64.98 -62.58,99.65 -70.69,105.93 -215.28,263.26 -333.56,312.62 3.81,-12.88 45.85,-65.34 59.26,-86.39 109.72,-172.21 171.3,-289.23 250.35,-481.16l77.19 -207.19 26.5 -74.16c-2.18,-29.59 43.61,-147.67 55.52,-182.72 10.81,-31.8 16.5,-63.07 23.94,-92.93 5.91,-23.68 30.19,-73.84 22.17,-86.16 -25.86,24.21 -39.16,105.94 -51.97,148.52 -15,49.83 -31.65,100.69 -47.12,150.04 -15.53,49.53 -30.32,103.06 -48.35,152.15 -13.24,36.04 -38.2,111.04 -55.03,140.95 -24.98,-35.25 -17.22,-427.32 -9.41,-491.71 15.8,-130.28 32.19,-208.16 56,-331.4 12.19,-63.14 33.6,-75.14 23.32,-92 -25.76,14.46 -15.07,42.44 -30.77,70.22 -10.73,19 -30.43,39.56 -44.41,59.57 -47.26,67.64 -110.89,183.68 -142.12,260.74 -11.48,28.34 -49.66,127.46 -62.55,135.67 -12.26,-23.64 65.81,-203.54 80.87,-236.22 23.67,-51.4 110.57,-200.52 113.41,-219.18 -29.26,13.13 -56.48,65.18 -75.18,95.89 -44.72,73.5 -116.8,145.92 -174.13,242.94 -31.83,53.87 -11.69,45.41 -38.25,45.65 -24.44,-37.52 111.36,-231.24 129.88,-263.14 20.11,-34.63 49.35,-65.33 49.7,-78.75 -18.02,-1.46 -5.64,-7.19 -19.78,10.39 -3.57,4.45 -9.78,15.31 -13.47,20.98l-78.6 122.39c-18.8,30.74 -32.98,57.33 -49.31,88.7l-42.98 92.28c-41.83,0.27 -69.48,-7.59 -101.85,11.89 14.09,36.8 103.35,54.78 111.69,72.6 55.9,24.74 72.87,47.02 101.07,81.48 4.65,5.69 8.59,9.52 13.57,15.69 9.8,12.14 6.16,5.76 13.13,19.41 7.05,2.73 1.65,-0.63 10.61,6.42 14.57,11.46 26.26,28.6 57.31,50.65 27.55,19.56 52.13,34.64 91.2,36.44 -4.7,62.49 0.61,111.4 11.84,169.57 7.91,41.02 5.76,39.12 -10.17,72.4 -7.2,15.06 -17.61,47.7 -27.95,54.65l-13.15 31c-8.88,25.54 -32.64,89.48 -45.94,103.52 -7.86,25.3 -16.04,33.22 -39.5,42.63 -8.78,12.2 -39.92,19.09 -57.47,17.74l-63.6 12.51c-66.71,23.32 -337.42,19.44 -412.46,12.65 -67.35,-6.09 -126.18,-17 -185.41,-36 -47.69,-15.3 -117.94,-43.62 -148.89,-71.14 -5.8,-49.72 -4.64,-90.17 -13.55,-139.93 -5.96,-33.37 -28.74,-92.15 -25.69,-118.59l-35.51 -104.76c-12.9,-23.42 -15.96,-90.2 -19.64,-122.65 -6.76,-59.61 -11,-74.87 2.11,-135.25 14.69,-67.66 28.23,-149.09 79.25,-213.2l33.32 -64.62c-0.04,-15.34 20.33,-69.52 28.96,-82.94l39.93 -112.33c-0.05,-68.23 74.41,-196.33 104.86,-247.45 57.41,-96.35 150.68,-196.72 151.22,-197.65 -11.12,28.43 -27.87,55.57 -41.12,87.18l-35.31 96.5c-23.66,-3.99 -19.61,-12.85 -50.05,-15.3 6.35,33.77 21.24,35.94 37.93,55.45l-47.07 187.03c-30.74,-15.84 -53.54,-56.2 -77.99,-58.12 -14.1,20.8 -22.28,72.51 -3.6,90.12 20.26,19.1 12.65,0.44 28.2,30.49 11.81,22.82 11.99,11.19 25.91,28.35 24.17,29.81 -1.52,8.58 30.37,27.7 24.15,14.47 4.36,15.19 25.76,28.42 8.59,5.31 7.59,0.97 20.28,9.67 20.75,14.22 18.67,32.29 46.46,40.22 5.03,-37.57 5.06,-78.63 9.32,-118.02 7.07,-65.28 39.43,-267.69 64.89,-308.54 6.74,-26.43 18.22,-57.41 27.81,-84.27 6.36,-17.8 26.36,-57.59 39.87,-70.7l1.06 -31.36c-33.86,14 -43.85,55.26 -66.52,95.55 -19.15,34.04 -39.74,74.06 -55.48,111.53 -17.39,41.4 -32.96,77.22 -48,118.92 -10.2,28.26 -29.87,101.19 -42.55,121.91 -32.37,-33.44 15.78,-143.88 29.37,-184.61 19.75,-59.2 38.3,-115.72 62.51,-172.8 24.3,-57.28 105.09,-216.93 148.17,-263.81 10.43,-11.35 20.67,-16.23 26.58,-36.73 -37.95,9.52 -67.84,66.41 -89.22,101.48 -79.05,129.69 -86.1,94.46 -164.93,203.53 -26.24,36.3 -50,67.33 -74.57,107.34 -112.05,182.49 -149.89,455.91 -214.12,517.66 -1.65,-95.38 223.76,-786.98 304.69,-819.94 36.5,42.36 37,58.73 144.07,-106.87 50.05,-77.41 33.09,-47.82 26.94,-82.37 -4.32,-24.24 35.48,-47.95 51.11,-59.93 86.81,-66.52 189.16,-132.78 313.89,-172.97 132.78,-42.79 264.72,-71.19 421.39,-65.81 85.06,2.92 359.62,37.81 407.53,76.18l0.01 -0.02zm-1030.43 61.04c-5.49,6.73 1.63,2.22 -11.82,10.79 -9,5.74 2.13,-0.12 -13.33,5.59 -3.64,5.56 -90.99,61.08 -96.82,62.62l-14.76 17.61c-16.01,16.3 -22.74,28.87 -35.74,36.52 -22.68,-16.49 -35.53,-73.94 -44.82,-101.72l-37.44 -59.18c-78.59,5.86 -146.86,242.57 -105.45,294.82 0.48,-58.49 7.85,-119.52 27.68,-170.22 9.37,-23.98 53.02,-100.23 71.45,-108.16 -8.02,17.72 -27.33,37.63 -38.45,53.35 -33.55,47.4 -37.02,215.43 -60.68,225.04 10.21,66.15 22.74,64.32 -19.39,112.94 -5.95,17.67 -18.92,44.83 -35.62,58.19 -1.79,17.32 -44.1,100.53 -55.45,129.79 -17.24,44.47 -34.62,89.18 -52.41,139.19 -33.82,95.07 -65.83,183.71 -93.89,289.02 -37.47,140.59 -27.85,171.52 -75.79,307.57 -20.14,57.17 -15.48,107.57 -22.23,168.07 -5.42,48.61 -23.98,108.97 -33.87,159.46 -29.51,150.52 -30.66,181.94 -47.67,334.21 -12.26,109.72 -20.7,238.18 -39.23,343.42 -21.71,123.33 -22.34,286.92 -41.52,434.91 -6.15,47.44 -22.72,228.81 -18.66,264.65 32.89,10.07 1244.68,3.49 1312.61,3.49 438.39,0 880.04,5.49 1318,-0.22 -7.73,-66.02 -113.44,-252.94 -113.48,-289.34 -7.15,-6.59 -2.72,0.78 -10.02,-12.88 -5.2,-9.74 -1.7,-3.55 -4.21,-13.11 -1.78,-2.37 -43.23,-85.53 -47.4,-96.41 -5.93,-15.46 -17.94,-241.72 -17.97,-275.78 -0.07,-94.04 2.23,-363.31 12.74,-429.3 13.88,-87.09 28.52,-167 40.4,-252.44 2.05,-15.09 4.81,-26.85 7.09,-42.71 0.97,-6.73 1.82,-15.03 3.66,-21.39 5.07,-17.52 -1.24,-4.33 6.52,-14.3l60.38 -404.01c9.61,-67.6 22.05,-132.76 37.13,-199.22 14.72,-64.83 32.2,-128.83 36.04,-198.22 7.46,-134.54 -44.91,-273.89 -96.87,-372.48 -149.4,-283.4 -540.52,-481.83 -876.42,-533.15 -141.33,-21.59 -290.45,-12.14 -429.04,17.57 -88.2,18.91 -185.85,49.57 -265.2,87.95 -20.93,10.13 -60.83,35.17 -78.02,37.49l-0.04 -0.01z"/>
  <path class="fil1" d="M1944.39 1110.06c-4.07,9.89 -5.56,13.75 -10.58,22.84 -0.84,1.53 -4.48,7.55 -5.53,8.94 -8.27,10.95 -2.84,4.89 -11.03,11.72 -3.08,19.55 -46.99,59.76 -63.37,67.39 -44.3,-99.63 -42.46,-175.3 21.03,-279.42 8.16,-13.39 44.57,-58.26 58.48,-62.2 5.57,12.54 10.14,41.09 16.83,59.46 15.16,41.66 41.98,85.74 25.22,122.34 -2.4,5.24 -27.38,45.06 -31.05,48.93l0 0zm-140.26 20.08c-8.74,-58.09 5.36,-116.85 29.92,-161.12 22.91,-41.3 50.98,-81.66 84.09,-110.48 -7.28,37.26 -36.78,35.48 -74.37,120.45 -16.59,37.5 -37.92,106.83 -39.64,151.16l0 -0.01zm3.98 71.72c18.61,11.9 20.74,23.83 41.81,33.54l42.84 -17.21c6.84,-15.89 33.36,-40.2 56.7,-79.94 12.5,-21.29 41.24,-68.91 45.58,-90.5 8.01,-39.8 -49.21,-189.73 -71.48,-206.24 -21.8,1.82 -27.83,12.57 -39.28,25.72 -54.72,62.86 -97.01,135.48 -100.1,225.75 -2.17,63.31 17.41,73.09 23.92,108.9l0.01 -0.02z"/>
  <path class="fil2" d="M1282.89 1295.33c5.96,-23.84 16.7,-41.41 27.56,-59.15l25.58 -38.61c0.72,-0.82 2.15,-2.23 2.76,-2.9l6.48 -5.69c-4.99,23.57 -15.24,41.85 -23.74,63.1 -20.76,51.87 -8.56,41.9 -38.65,43.25l0.01 0zm104.74 -207.16c-15.01,27.51 -36.92,54.07 -54.54,82.4 -17.99,28.93 -31.18,54.03 -47.12,80.51 -13.22,21.95 -85.62,164.35 -89.39,167.77 -2.15,10.19 -4.5,18.78 -8.77,28.03 -6.3,13.64 -2.78,9.57 -12.68,18.62l4.97 15.13c19.05,-10.71 55.59,-94.29 69.84,-123.09 17.03,-34.44 9.28,-30.47 25.56,-38.81 20.78,13.63 14.73,14.6 6.3,41.58 -9.65,30.86 -42.21,126.55 -35.76,145.11 11.79,-3.88 3.72,2.36 10.81,-8.79l16.55 -56.29c13.07,-45.61 56.61,-194.55 75.25,-216.7 4.89,-18.96 12.83,-34.26 20.37,-51.88 7.58,-17.74 13.02,-32.79 26.05,-44.57 1.74,-17.19 22.02,-52.76 32.54,-58.72 10.65,-27.41 43.29,-52.4 40.21,-76.47 -18.85,5.83 -15.44,5.09 -26.39,21.87 -5.76,8.81 -11.19,17.68 -17.3,26.57 -9.98,14.55 -23.44,39.7 -36.48,47.72l-0.02 0.02z"/>
  <path class="fil1" d="M2441.59 1915.18c38.98,-15.56 73.43,-136.46 89.81,-184.35 74.77,-218.59 120.13,-410.93 125.68,-642.69 1.52,-63.85 2.07,-52.05 -11.79,-58.11 -6.13,13.11 -14.52,211.2 -21.29,252.67 -13.19,80.85 -23.73,156.17 -44.19,231.15 -19.68,72.15 -71.3,246.85 -97.43,314.94 -19.23,50.11 -41.55,70.53 -40.8,86.38l0.01 0.01z"/>
  <path class="fil1" d="M1156.7 2126.13c15.82,-39.47 9.79,-73.24 -10.47,-104.58l-37.64 3.61c-82.8,8.4 -221.23,-58.7 -287.3,-104.69 -21.41,-14.91 -49.98,-45.15 -68.53,-53.99 -0.76,30.8 46.74,54.57 71.46,70.54 57.67,37.25 192.3,96.41 256.02,106.74 22.81,3.7 46.53,-2.99 65.69,3.18 26.68,140.55 -140.48,63.41 -202.49,30.94 -158.08,-82.74 -143.57,-140.3 -185.52,-152.76 11.47,83.02 193.26,182.72 274.4,206.66 90.23,26.63 94.22,4.46 124.39,-5.66l-0.01 0z"/>
  <path class="fil2" d="M995.64 1296.19c22.35,-13.33 28.3,-49.75 38.86,-70.83 12.96,-25.89 29.62,-48.57 38.97,-75.79 14.57,26.89 -59.65,161.87 -33.64,199.09 12.97,-11.36 18.09,-54.1 24.17,-78.87 6.64,-27.06 14.17,-52.86 22.39,-80.88 14.81,-50.53 35.44,-106.7 54.99,-150.8 32.02,-72.22 68.2,-135.57 114.4,-195.47 15.49,-20.09 42.09,-40.37 47.4,-66.49 -42.47,12.41 -70.56,78.44 -95.89,116.2 -34.16,50.89 -194.12,329.18 -212.41,381.87 -2.38,6.84 -5.04,10.85 0.76,21.97l0 0z"/>
  <path class="fil1" d="M2778.96 847.59c-0.29,18.15 0.3,36.15 0.07,54.22l-4.12 32.57c-0.3,1.01 -1.38,4.5 -1.61,3.82 -0.23,-0.67 -1.04,2.53 -1.73,3.7 6.79,36.63 -18.52,260.15 -32.31,298.94 -5.4,15.19 -13.12,23.4 -5.58,35.75 34.72,-22.86 62.33,-296.39 64.77,-350.46 2.02,-44.84 -6.84,-95.78 -3.54,-133.37 -7.67,-9.89 -1.73,2.43 -6.03,-14.34 -0.49,-1.9 -1.84,-11.15 -2.14,-13.48 -1.65,-12.94 -2.2,-22.5 -2.96,-35.17 -2.42,-14.39 -3.94,-30.13 -6.74,-43.89 -3.44,-16.86 -5.76,-27.48 -18.81,-37.44l-2.44 7.5c-3.5,24.04 6.61,61.4 11.87,88.97 6.31,33.11 16.3,68.72 11.31,102.69l-0.01 -0.01z"/>
  <path class="fil1" d="M1383.55 545.5c-0.83,1.11 -1.87,2.59 -2.44,3.35 -0.57,0.74 -1.71,2.39 -2.41,3.27 -12.84,16.23 -13.94,15.57 -26.95,21.41 -0.4,0.84 -1.26,1.16 -1.48,2.35l-49.7 46.36c-22.82,23.69 -134.85,162.19 -139.84,187.5 35.31,-9.7 69.22,-92.51 94.15,-106.88l76.57 -82.31c2.58,-7.57 -2.41,0.27 4.27,-7.69 2.5,-2.97 4.37,-4.67 7.25,-7.12 7.54,-6.42 11.34,-9.06 19.58,-11.67 10.13,-15.41 66.83,-60.89 77.47,-65.76l22.85 -23.47c9.55,-7.81 16.33,-14.7 26.54,-22.61 40.79,-31.61 50.29,-21.87 56.61,-47.94 -32.93,1.51 -113.69,71.27 -143.04,99.15l-19.44 12.05 0.01 0.01z"/>
  <path class="fil2" d="M1354.72 472.26c-3.98,8.95 -4.64,10.84 -6.4,23.26 17.87,-4.33 7.19,1.57 20.73,-10.91 11.92,-10.99 -0.12,-4.85 17.47,-14.48l13.72 -18.07c6.08,-6.09 9.57,-9.94 17.1,-17.52 24.62,-24.77 91,-71.21 122.59,-92.98 26.78,-18.45 58.28,-36.99 90.67,-51.63l106.56 -41.33c-6.66,-5.69 1.21,-4.43 -10.51,-5.73l-46.62 12.65c-101.93,33.42 -232.79,122.84 -304.54,201.18 -3.21,3.51 -6.5,7.5 -9.64,9.96 -7.05,5.52 -4.7,3.76 -11.13,5.61l0.01 -0.01z"/>
  <path class="fil2" d="M1321.89 1002.94c-3.53,18.24 -32.52,47.28 -54.13,82.31 -17.81,28.85 -34.39,51.2 -53.35,83.86 -28.93,49.87 -85.9,182.74 -86.83,184.19l-3.85 23.94c17,-2.27 14.93,-4.59 23.49,-24.24 6.3,-14.46 8.03,-27.33 18.42,-36.46 0.5,-49.92 93.59,-196.61 127.98,-244.91 13.04,-18.32 45.55,-57.02 50.47,-76.5 -15.07,0.76 -13.41,1.07 -22.19,7.82l-0.01 -0.01z"/>
  <path class="fil3" d="M1282.89 1295.33c30.09,-1.35 17.89,8.62 38.65,-43.25 8.5,-21.25 18.75,-39.53 23.74,-63.1l-6.48 5.69c-0.61,0.67 -2.04,2.08 -2.76,2.9l-25.58 38.61c-10.86,17.74 -21.6,35.31 -27.56,59.15l-0.01 -0z"/>
  <path class="fil1" d="M847.71 1488.47c-9.06,9.48 -1.59,1.12 -12.05,8.63 -10.95,7.86 -7.1,1.28 -11.9,14.59l32.53 -1.43c13.5,-13.31 21.21,-16.34 36.25,-34.19 12.57,-14.92 29.7,-21.31 27.96,-42.44 -23.64,3.52 -37.72,51.1 -72.8,54.82l0.01 0.02z"/>
  <path class="fil4" d="M791.23 1573.2c-0.91,5.14 -1.83,14.66 -2.63,20.73 -7.07,53.35 2.71,40.86 5.75,44.16 12.73,-10.07 15.01,-69.37 4.91,-84.93l-8.02 20.04 -0.01 0z"/>
 </g>
</svg>
